<?xml version="1.0" encoding="UTF-8"?>
<svg width="90px" height="29px" viewBox="0 0 90 29" version="1.1" xmlns="http://www.w3.org/2000/svg" xmlns:xlink="http://www.w3.org/1999/xlink">
    <!-- Generator: sketchtool 52.5 (67469) - http://www.bohemiancoding.com/sketch -->
    <title>E8A559B2-4BAA-4400-B8BC-C8F753A62E22</title>
    <desc>Created with sketchtool.</desc>
    <g id="Page-1" stroke="none" stroke-width="1" fill="none" fill-rule="evenodd">
        <g id="[Colaborador]-Dashboard" transform="translate(-720.000000, -832.000000)">
            <g id="Ativo-1" transform="translate(720.000000, 832.000000)">
                <path d="M63.4856305,11.7686217 L64.8765396,11.7686217 L64.8765396,13.8087977 L67.2255132,13.8087977 L67.2255132,15.1099707 L64.8765396,15.1099707 L64.8765396,18.4064516 C64.8765396,19.0240469 65.0296188,19.4753666 65.3304985,19.7604106 C65.6313783,20.0454545 66.1222874,20.1879765 66.7821114,20.1879765 L67.2255132,20.1879765 L67.2255132,21.5076246 L66.7741935,21.5076246 C65.6797654,21.5076246 64.8589443,21.270088 64.3117302,20.7950147 C63.7653959,20.3173021 63.4935484,19.6020528 63.4935484,18.6439883 L63.4856305,11.7686217 Z" id="Path" fill="#727474"></path>
                <path d="M82.2325513,15.1258065 L81.6334311,15.1258065 C80.6568915,15.1258065 79.8791789,15.3571848 79.3002933,15.8199413 C78.7422452,16.2709122 78.4179381,16.9499584 78.4179381,17.6674487 C78.4179381,18.384939 78.7422452,19.0639851 79.3002933,19.514956 C79.9748616,20.0060905 80.7974302,20.2510911 81.6307918,20.2090909 L82.229912,20.2090909 L82.229912,21.5102639 L81.5357771,21.5102639 C80.1475073,21.5102639 79.0416422,21.1583578 78.2181818,20.4545455 C77.3957796,19.7608345 76.9390992,18.7267308 76.9803519,17.6516129 C76.9768401,17.0375856 77.1294149,16.4327355 77.4237537,15.8938416 C77.7256597,15.3394429 78.1576881,14.866657 78.6826979,14.516129 C79.0530384,14.2703545 79.4614844,14.0875348 79.8914956,13.9750733 C80.4318898,13.854488 80.9848595,13.7995455 81.5384164,13.811437 L82.2325513,13.811437 L82.2325513,15.1258065 Z" id="Path" fill="#727474"></path>
                <path d="M83.1906158,21.5049853 L83.1906158,10.2695015 L84.5815249,10.2695015 L84.5815249,14.5451613 C84.876033,14.2603274 85.22049,14.0321805 85.597654,13.8721408 C85.9574665,13.7235738 86.3432799,13.6482056 86.7325513,13.6504399 C87.5878412,13.6030053 88.4169954,13.9537638 88.9785924,14.6005865 C89.5064516,15.2340176 89.7703812,16.1260997 89.7703812,17.2768328 L89.7703812,21.4997067 L88.3794721,21.4997067 L88.3794721,17.0577713 C88.4153582,16.507947 88.243981,15.9646247 87.8991202,15.5348974 C87.5444121,15.1662818 87.0450387,14.9731006 86.5346041,15.0070381 C85.9889268,14.9918383 85.4668173,15.2295151 85.1199413,15.6510264 C84.7372417,16.1333534 84.5430572,16.7384212 84.573607,17.3533724 L84.573607,21.5049853 L83.1906158,21.5049853 Z" id="Path" fill="#727474"></path>
                <path d="M72.1187683,13.8378299 C70.7147573,13.7857311 69.3945157,14.5050501 68.677038,15.7130182 C67.9595604,16.9209863 67.9595604,18.4244682 68.677038,19.6324363 C69.3945157,20.8404045 70.7147573,21.5597234 72.1187683,21.5076246 C73.679468,21.5180552 75.1006508,20.6105654 75.7478006,19.1903226 L74.1140762,19.1903226 C73.6537009,19.8318106 72.9136297,20.2136246 72.1240469,20.2170088 C70.8783353,20.1997048 69.8325642,19.2739954 69.6642229,18.0395894 L76.0513196,18.0395894 C76.064521,17.9213107 76.0689319,17.8022157 76.0645161,17.6832845 C76.0526999,16.6496318 75.6299838,15.6631819 74.8896853,14.9417004 C74.1493868,14.2202188 73.1523827,13.823035 72.1187683,13.8378299 Z M72.1187683,15.0756598 C73.2246123,15.0901416 74.1900674,15.8281783 74.4941349,16.8914956 L69.7434018,16.8914956 C70.045955,15.827147 71.0123263,15.0884098 72.1187683,15.0756598 Z" id="Shape" fill="#727474" fill-rule="nonzero"></path>
                <g id="Group" style="mix-blend-mode: multiply;" transform="translate(32.727273, 7.126100)" fill="#464543">
                    <path d="M1.40146628,1.48856305 C0.525219941,2.34369501 0.0818181818,3.63167155 0.0818181818,5.31290323 L0.0818181818,14.3894428 L2.96920821,14.3894428 L2.96920821,9.50146628 L7.7542522,9.50146628 L7.7542522,6.74868035 L2.96920821,6.74868035 L2.96920821,5.04897361 C2.96920821,4.34428152 3.13548387,3.83225806 3.48123167,3.48387097 C3.82697947,3.13548387 4.32052786,2.95601173 5.00146628,2.95601173 L7.7542522,2.95601173 L7.7542522,0.203225806 L5.30234604,0.203225806 C3.58680352,0.203225806 2.27507331,0.636070381 1.40146628,1.48856305 Z" id="Path" style="mix-blend-mode: multiply;"></path>
                    <path d="M21.6818182,1.48328446 C20.8055718,2.33841642 20.3621701,3.62375367 20.3621701,5.30498534 L20.3621701,14.3815249 L23.2495601,14.3815249 L23.2495601,9.50146628 L28.0372434,9.50146628 L28.0372434,6.74076246 L23.2495601,6.74076246 L23.2495601,5.04105572 C23.2495601,4.33900293 23.4184751,3.82434018 23.7615836,3.47595308 C24.1046921,3.12756598 24.6008798,2.96392962 25.2818182,2.96392962 L28.0372434,2.96392962 L28.0372434,0.197947214 L25.5826979,0.197947214 C23.8671554,0.197947214 22.5554252,0.630791789 21.6818182,1.48328446 Z" id="Path" style="mix-blend-mode: multiply;"></path>
                    <path d="M14.0568915,0.20058651 C13.2025752,0.19203037 12.3605955,0.404798465 11.6129032,0.818181818 C10.3999465,1.50046364 9.54715306,2.68028984 9.2797654,4.04604106 C9.15982461,4.74320005 9.10679754,5.4502277 9.12140762,6.15747801 L9.12140762,14.3392962 L12.0246334,14.3392962 L12.0246334,9.78123167 L13.9645161,9.78123167 C15.2851716,9.81981717 16.5669882,9.33177738 17.527566,8.42463343 C18.4650429,7.54133131 18.9847632,6.30244101 18.9580645,5.01466276 C18.9722208,3.73079261 18.451018,2.49903264 17.5196481,1.61524927 C16.6048116,0.69390263 15.3551631,0.183375531 14.0568915,0.20058651 Z M12.0246334,5.36568915 C11.9854809,4.7257305 12.1806209,4.09340189 12.573607,3.58680352 C12.9410003,3.18016713 13.4728025,2.9618177 14.0199413,2.99296188 C14.5492737,2.97914132 15.0606087,3.18558684 15.4319648,3.56304985 C15.812448,3.93148658 16.0203223,4.44302983 16.0046921,4.97243402 C16.0334855,5.51964481 15.8178817,6.05140302 15.416129,6.42404692 C14.9457723,6.82207545 14.3391539,7.02175795 13.7243402,6.98093842 L12.0140762,6.98093842 L12.0246334,5.36568915 Z" id="Shape" fill-rule="nonzero" style="mix-blend-mode: multiply;"></path>
                </g>
                <path d="M15.5507331,17.8548387 L16.0785924,13.5475073 L16.7780059,7.7542522 C16.9472356,6.60534269 17.5063477,5.54955257 18.3615836,4.76392962 C19.2464226,3.95735245 20.4000707,3.50944341 21.5973607,3.50762463 L21.6422287,3.50762463 C24.0743697,3.50487191 26.4976917,3.80003146 28.8580645,4.38651026 C28.5669695,3.9024118 28.2302461,3.44726077 27.8524927,3.02727273 C24.5080321,-0.673713342 18.8201525,-1.02649549 15.0439883,2.23284457 C14.2433986,2.92539198 13.5722595,3.75470896 13.0618768,4.68211144 C12.5716743,5.5718487 12.23948,6.53985592 12.0800587,7.5431085 L11.3093842,13.5739003 L10.7815249,17.857478 L10.2087977,22.5316716 C10.0670886,23.4583592 9.61259509,24.3086719 8.92082111,24.941349 C8.20695664,25.5918894 7.27637431,25.9532076 6.31055718,25.9548387 C6.228739,25.9548387 6.14428152,25.9548387 6.06246334,25.9548387 C4.57881551,25.9385518 3.09845433,25.8115124 1.63372434,25.5747801 C1.71290323,25.6750733 1.7973607,25.7753666 1.88445748,25.8730205 C3.33358947,27.4746084 5.39379227,28.3867373 7.55366569,28.3829912 C9.38532403,28.3872691 11.1571868,27.7313707 12.5445748,26.5354839 C13.8588073,25.4024159 14.7324099,23.843012 15.0123167,22.1304985 L15.540176,17.8601173" id="Path" fill="#BBD147"></path>
                <path d="M28.6653959,5.0542522 C27.2456391,4.70288477 25.8013459,4.45937535 24.344868,4.32580645 C24.6965012,4.56746978 25.0150356,4.85406197 25.2923754,5.17829912 C27.0749763,7.27716899 26.8839875,10.4086862 24.8595308,12.2753666 C24.0116156,13.0448338 22.9185001,13.4889997 21.7741935,13.5290323 L16.8519062,13.5290323 L16.8519062,13.6002933 L16.3240469,17.8231672 L21.3387097,17.8231672 C22.3674843,17.7964858 23.3845091,17.5975415 24.3475073,17.2346041 C25.3407346,16.8541364 26.2598367,16.3030324 27.0633431,15.6061584 C30.0505951,13.035 30.9752584,8.79704977 29.3304985,5.21524927 L28.6653959,5.0542522 Z" id="Path" fill="#464543" style="mix-blend-mode: multiply;"></path>
                <path d="M1.75777126,24.8278592 C2.47302053,24.941349 3.19618768,25.0284457 3.92199413,25.0917889 C3.71423326,24.9291304 3.52325429,24.7461089 3.35190616,24.5454545 C1.91265196,22.8539787 2.06403082,20.3282808 3.69501466,18.8208211 C4.38240711,18.2074565 5.26551422,17.858517 6.18651026,17.8363636 L10.0134897,17.8363636 L10.0134897,17.741349 L10.541349,13.5316716 L7.32140762,13.5316716 C5.57325509,13.5866208 3.89665077,14.2386336 2.57067449,15.3791789 C-0.149375456,17.7027815 -0.790193363,21.6526312 1.05571848,24.7170088 L1.75777126,24.8278592 Z" id="Path" fill="#464543" style="mix-blend-mode: multiply;"></path>
            </g>
        </g>
    </g>
</svg>