<?xml version="1.0" encoding="UTF-8"?>
<svg width="243px" height="46px" viewBox="0 0 243 46" version="1.1" xmlns="http://www.w3.org/2000/svg" xmlns:xlink="http://www.w3.org/1999/xlink">
    <!-- Generator: Sketch 52.5 (67469) - http://www.bohemiancoding.com/sketch -->
    <title>Group</title>
    <desc>Created with Sketch.</desc>
    <g id="Page-1" stroke="none" stroke-width="1" fill="none" fill-rule="evenodd">
        <g id="[Colaborador]-Login" transform="translate(-577.000000, -263.000000)">
            <g id="Group" transform="translate(577.000000, 263.000000)">
                <path d="M82.0595703,34.8466797 L84.8452148,34.3681641 L84.8452148,12.9887695 L82.0595703,12.5102539 L82.0595703,10.3398438 L88.2119141,10.3398438 L88.2119141,20.9697266 C88.8499381,20.0810502 89.6303665,19.3917668 90.5532227,18.9018555 C91.4760788,18.4119442 92.5014592,18.1669922 93.6293945,18.1669922 C95.6118263,18.1669922 97.1498969,18.7594342 98.2436523,19.9443359 C99.3374078,21.1292377 99.8842773,22.9521361 99.8842773,25.4130859 L99.8842773,34.3681641 L102.669922,34.8466797 L102.669922,37 L93.7319336,37 L93.7319336,34.8466797 L96.5175781,34.3681641 L96.5175781,25.3789062 C96.5175781,23.8522059 96.1900261,22.7242875 95.5349121,21.9951172 C94.8797982,21.2659469 93.9028385,20.9013672 92.6040039,20.9013672 C91.6811477,20.9013672 90.8409055,21.1206847 90.083252,21.5593262 C89.3255984,21.9979677 88.7018254,22.593258 88.2119141,23.3452148 L88.2119141,34.3681641 L90.9975586,34.8466797 L90.9975586,37 L82.0595703,37 L82.0595703,34.8466797 Z M114.855841,37.3588867 C112.280958,37.3588867 110.233046,36.5015548 108.712042,34.7868652 C107.191038,33.0721757 106.430548,30.8476699 106.430548,28.1132812 L106.430548,27.3613281 C106.430548,24.729479 107.213825,22.5391526 108.780401,20.7902832 C110.346978,19.0414138 112.201208,18.1669922 114.343146,18.1669922 C116.826882,18.1669922 118.709594,18.9189378 119.991339,20.4228516 C121.273084,21.9267653 121.913946,23.9319536 121.913946,26.4384766 L121.913946,28.5405273 L109.916876,28.5405273 L109.865607,28.6259766 C109.899786,30.4033292 110.349814,31.8644962 111.215704,33.0095215 C112.081594,34.1545467 113.294961,34.7270508 114.855841,34.7270508 C115.99517,34.7270508 116.994915,34.5646989 117.855108,34.2399902 C118.715302,33.9152816 119.458702,33.4681018 120.085333,32.8984375 L121.401251,35.0859375 C120.74044,35.7239615 119.866019,36.2622862 118.77796,36.7009277 C117.689901,37.1395693 116.382541,37.3588867 114.855841,37.3588867 Z M114.343146,20.815918 C113.21521,20.815918 112.252492,21.2915805 111.454962,22.2429199 C110.657432,23.1942593 110.167528,24.3876881 109.985235,25.8232422 L110.019415,25.9086914 L118.547247,25.9086914 L118.547247,25.4643555 C118.547247,24.1427343 118.194061,23.0376021 117.487677,22.1489258 C116.781293,21.2602495 115.733127,20.815918 114.343146,20.815918 Z M126.238537,12.5102539 L126.238537,10.3398438 L132.390881,10.3398438 L132.390881,34.3681641 L135.176526,34.8466797 L135.176526,37 L126.238537,37 L126.238537,34.8466797 L129.024182,34.3681641 L129.024182,12.9887695 L126.238537,12.5102539 Z M138.783343,41.9389648 L141.568988,41.4604492 L141.568988,21.1577148 L138.783343,20.6791992 L138.783343,18.5087891 L144.457171,18.5087891 L144.764788,20.7646484 C145.380026,19.9215453 146.129123,19.2778343 147.012103,18.8334961 C147.895082,18.3891579 148.917615,18.1669922 150.07973,18.1669922 C152.36978,18.1669922 154.149955,19.0755931 155.420306,20.8928223 C156.690657,22.7100514 157.325824,25.1111504 157.325824,28.0961914 L157.325824,28.4550781 C157.325824,31.1211071 156.687809,33.2715576 155.411761,34.9064941 C154.135713,36.5414307 152.375477,37.3588867 150.130999,37.3588867 C148.991671,37.3588867 147.991925,37.168052 147.131732,36.786377 C146.271539,36.4047019 145.539531,35.8378944 144.935687,35.0859375 L144.935687,41.4604492 L147.721331,41.9389648 L147.721331,44.109375 L138.783343,44.109375 L138.783343,41.9389648 Z M153.942034,28.0961914 C153.942034,25.9884335 153.531882,24.2623765 152.711566,22.9179688 C151.891249,21.573561 150.672186,20.9013672 149.054339,20.9013672 C148.097303,20.9013672 147.276999,21.1178364 146.593402,21.5507812 C145.909804,21.9837261 145.357238,22.5761681 144.935687,23.328125 L144.935687,32.3344727 C145.357238,33.0978228 145.906956,33.6874165 146.584857,34.1032715 C147.262757,34.5191264 148.097303,34.7270508 149.088519,34.7270508 C150.683579,34.7270508 151.891249,34.1460019 152.711566,32.9838867 C153.531882,31.8217715 153.942034,30.3121838 153.942034,28.4550781 L153.942034,28.0961914 Z M174.313989,34.7954102 C173.710144,35.6385133 172.97244,36.2765278 172.100854,36.7094727 C171.229267,37.1424175 170.218128,37.3588867 169.067407,37.3588867 C166.811536,37.3588867 165.048451,36.5414307 163.7781,34.9064941 C162.507749,33.2715576 161.872582,31.1211071 161.872582,28.4550781 L161.872582,28.0961914 C161.872582,25.1225437 162.507749,22.724293 163.7781,20.9013672 C165.048451,19.0784414 166.822929,18.1669922 169.101586,18.1669922 C170.195342,18.1669922 171.160908,18.36922 171.998315,18.7736816 C172.835721,19.1781433 173.550639,19.7620405 174.14309,20.5253906 L174.14309,12.9887695 L171.357446,12.5102539 L171.357446,10.3398438 L177.509789,10.3398438 L177.509789,34.3681641 L180.295434,34.8466797 L180.295434,37 L174.587426,37 L174.313989,34.7954102 Z M165.239282,28.4550781 C165.239282,30.3121838 165.620951,31.8046819 166.384301,32.9326172 C167.147651,34.0605525 168.326839,34.6245117 169.921899,34.6245117 C170.924508,34.6245117 171.767598,34.3966494 172.451196,33.940918 C173.134793,33.4851865 173.698752,32.8414755 174.14309,32.0097656 L174.14309,23.4306641 C173.710145,22.6559206 173.146186,22.0406924 172.451196,21.5849609 C171.756205,21.1292295 170.924508,20.9013672 169.956078,20.9013672 C168.349625,20.9013672 167.161893,21.5678644 166.392846,22.9008789 C165.623799,24.2338934 165.239282,25.9656469 165.239282,28.0961914 L165.239282,28.4550781 Z M192.77188,37.3588867 C190.196998,37.3588867 188.149085,36.5015548 186.628081,34.7868652 C185.107078,33.0721757 184.346587,30.8476699 184.346587,28.1132812 L184.346587,27.3613281 C184.346587,24.729479 185.129864,22.5391526 186.696441,20.7902832 C188.263018,19.0414138 190.117247,18.1669922 192.259185,18.1669922 C194.742921,18.1669922 196.625634,18.9189378 197.907378,20.4228516 C199.189123,21.9267653 199.829986,23.9319536 199.829986,26.4384766 L199.829986,28.5405273 L187.832915,28.5405273 L187.781646,28.6259766 C187.815826,30.4033292 188.265854,31.8644962 189.131744,33.0095215 C189.997633,34.1545467 191.211,34.7270508 192.77188,34.7270508 C193.911209,34.7270508 194.910955,34.5646989 195.771148,34.2399902 C196.631341,33.9152816 197.374742,33.4681018 198.001373,32.8984375 L199.31729,35.0859375 C198.65648,35.7239615 197.782058,36.2622862 196.693999,36.7009277 C195.605941,37.1395693 194.298581,37.3588867 192.77188,37.3588867 Z M192.259185,20.815918 C191.13125,20.815918 190.168531,21.2915805 189.371001,22.2429199 C188.573471,23.1942593 188.083567,24.3876881 187.901275,25.8232422 L187.935455,25.9086914 L196.463287,25.9086914 L196.463287,25.4643555 C196.463287,24.1427343 196.1101,23.0376021 195.403716,22.1489258 C194.697333,21.2602495 193.649166,20.815918 192.259185,20.815918 Z M218.766393,24.3193359 L216.237096,24.3193359 L215.690221,22.0976562 C215.280063,21.7102845 214.764524,21.3998221 214.14359,21.1662598 C213.522656,20.9326974 212.819131,20.815918 212.032995,20.815918 C210.8367,20.815918 209.948037,21.0779596 209.366979,21.6020508 C208.785921,22.1261419 208.495397,22.7584598 208.495397,23.4990234 C208.495397,24.2281937 208.751742,24.8035461 209.26444,25.2250977 C209.777138,25.6466492 210.819608,26.022622 212.391881,26.3530273 C214.727505,26.8543319 216.464955,27.5350706 217.604284,28.3952637 C218.743612,29.2554568 219.313268,30.4090097 219.313268,31.855957 C219.313268,33.4965902 218.649619,34.8238882 217.322301,35.8378906 C215.994983,36.8518931 214.260382,37.3588867 212.118444,37.3588867 C210.71707,37.3588867 209.45813,37.1965348 208.341588,36.8718262 C207.225046,36.5471175 206.228149,36.0771515 205.350866,35.4619141 L205.333776,31.2407227 L207.863073,31.2407227 L208.495397,33.71875 C208.882769,34.0719419 209.4097,34.328287 210.076208,34.487793 C210.742715,34.647299 211.423453,34.7270508 212.118444,34.7270508 C213.314739,34.7270508 214.251823,34.4849471 214.929723,34.0007324 C215.607624,33.5165178 215.946569,32.8813516 215.946569,32.0952148 C215.946569,31.3546512 215.664589,30.7451196 215.100622,30.2666016 C214.536654,29.7880835 213.468549,29.3722348 211.896276,29.019043 C209.651799,28.5291317 207.959921,27.8626344 206.820592,27.0195312 C205.681264,26.1764281 205.111608,25.0371166 205.111608,23.6015625 C205.111608,22.0976487 205.752471,20.8159233 207.034215,19.7563477 C208.31596,18.696772 209.982203,18.1669922 212.032995,18.1669922 C213.434369,18.1669922 214.693308,18.349282 215.80985,18.7138672 C216.926392,19.0784523 217.854931,19.585446 218.595495,20.2348633 L218.766393,24.3193359 Z M223.466961,12.5102539 L223.466961,10.3398438 L229.619304,10.3398438 L229.619304,25.7890625 L231.772625,25.7890625 L235.720379,20.9013672 L234.028484,20.6791992 L234.028484,18.5087891 L241.770183,18.5087891 L241.770183,20.6791992 L239.514324,21.1235352 L234.643718,26.934082 L240.573894,34.4365234 L242.675945,34.8466797 L242.675945,37 L235.002605,37 L235.002605,34.8466797 L236.728679,34.6245117 L231.823894,28.472168 L229.619304,28.472168 L229.619304,34.3681641 L232.404949,34.8466797 L232.404949,37 L223.466961,37 L223.466961,34.8466797 L226.252605,34.3681641 L226.252605,12.9887695 L223.466961,12.5102539 Z" id="helpdesk" fill="#BBD147"></path>
                <path d="M174.313989,34.7954102 C173.710144,35.6385133 172.97244,36.2765278 172.100854,36.7094727 C171.229267,37.1424175 170.218128,37.3588867 169.067407,37.3588867 C166.811536,37.3588867 165.048451,36.5414307 163.7781,34.9064941 C162.507749,33.2715576 161.872582,31.1211071 161.872582,28.4550781 L161.872582,28.0961914 C161.872582,25.1225437 162.507749,22.724293 163.7781,20.9013672 C165.048451,19.0784414 166.822929,18.1669922 169.101586,18.1669922 C170.195342,18.1669922 171.160908,18.36922 171.998315,18.7736816 C172.835721,19.1781433 173.550639,19.7620405 174.14309,20.5253906 L174.14309,12.9887695 L171.357446,12.5102539 L171.357446,10.3398438 L177.509789,10.3398438 L177.509789,34.3681641 L180.295434,34.8466797 L180.295434,37 L174.587426,37 L174.313989,34.7954102 Z M165.239282,28.4550781 C165.239282,30.3121838 165.620951,31.8046819 166.384301,32.9326172 C167.147651,34.0605525 168.326839,34.6245117 169.921899,34.6245117 C170.924508,34.6245117 171.767598,34.3966494 172.451196,33.940918 C173.134793,33.4851865 173.698752,32.8414755 174.14309,32.0097656 L174.14309,23.4306641 C173.710145,22.6559206 173.146186,22.0406924 172.451196,21.5849609 C171.756205,21.1292295 170.924508,20.9013672 169.956078,20.9013672 C168.349625,20.9013672 167.161893,21.5678644 166.392846,22.9008789 C165.623799,24.2338934 165.239282,25.9656469 165.239282,28.0961914 L165.239282,28.4550781 Z M192.77188,37.3588867 C190.196998,37.3588867 188.149085,36.5015548 186.628081,34.7868652 C185.107078,33.0721757 184.346587,30.8476699 184.346587,28.1132812 L184.346587,27.3613281 C184.346587,24.729479 185.129864,22.5391526 186.696441,20.7902832 C188.263018,19.0414138 190.117247,18.1669922 192.259185,18.1669922 C194.742921,18.1669922 196.625634,18.9189378 197.907378,20.4228516 C199.189123,21.9267653 199.829986,23.9319536 199.829986,26.4384766 L199.829986,28.5405273 L187.832915,28.5405273 L187.781646,28.6259766 C187.815826,30.4033292 188.265854,31.8644962 189.131744,33.0095215 C189.997633,34.1545467 191.211,34.7270508 192.77188,34.7270508 C193.911209,34.7270508 194.910955,34.5646989 195.771148,34.2399902 C196.631341,33.9152816 197.374742,33.4681018 198.001372,32.8984375 L199.31729,35.0859375 C198.65648,35.7239615 197.782058,36.2622862 196.693999,36.7009277 C195.605941,37.1395693 194.298581,37.3588867 192.77188,37.3588867 Z M192.259185,20.815918 C191.13125,20.815918 190.168531,21.2915805 189.371001,22.2429199 C188.573471,23.1942593 188.083567,24.3876881 187.901275,25.8232422 L187.935455,25.9086914 L196.463287,25.9086914 L196.463287,25.4643555 C196.463287,24.1427343 196.1101,23.0376021 195.403716,22.1489258 C194.697333,21.2602495 193.649166,20.815918 192.259185,20.815918 Z M218.766393,24.3193359 L216.237096,24.3193359 L215.690221,22.0976562 C215.280063,21.7102845 214.764524,21.3998221 214.14359,21.1662598 C213.522656,20.9326974 212.819131,20.815918 212.032995,20.815918 C210.8367,20.815918 209.948037,21.0779596 209.366979,21.6020508 C208.785921,22.1261419 208.495397,22.7584598 208.495397,23.4990234 C208.495397,24.2281937 208.751742,24.8035461 209.26444,25.2250977 C209.777138,25.6466492 210.819608,26.022622 212.391881,26.3530273 C214.727505,26.8543319 216.464955,27.5350706 217.604284,28.3952637 C218.743612,29.2554568 219.313268,30.4090097 219.313268,31.855957 C219.313268,33.4965902 218.649619,34.8238882 217.322301,35.8378906 C215.994983,36.8518931 214.260382,37.3588867 212.118444,37.3588867 C210.71707,37.3588867 209.45813,37.1965348 208.341588,36.8718262 C207.225046,36.5471175 206.228149,36.0771515 205.350866,35.4619141 L205.333776,31.2407227 L207.863073,31.2407227 L208.495397,33.71875 C208.882769,34.0719419 209.4097,34.328287 210.076208,34.487793 C210.742715,34.647299 211.423453,34.7270508 212.118444,34.7270508 C213.314739,34.7270508 214.251823,34.4849471 214.929723,34.0007324 C215.607624,33.5165178 215.946569,32.8813516 215.946569,32.0952148 C215.946569,31.3546512 215.664589,30.7451196 215.100622,30.2666016 C214.536654,29.7880835 213.468549,29.3722348 211.896276,29.019043 C209.651799,28.5291317 207.959921,27.8626344 206.820592,27.0195312 C205.681264,26.1764281 205.111608,25.0371166 205.111608,23.6015625 C205.111608,22.0976487 205.752471,20.8159233 207.034215,19.7563477 C208.31596,18.696772 209.982203,18.1669922 212.032995,18.1669922 C213.434369,18.1669922 214.693308,18.349282 215.80985,18.7138672 C216.926392,19.0784523 217.854931,19.585446 218.595495,20.2348633 L218.766393,24.3193359 Z M223.466961,12.5102539 L223.466961,10.3398438 L229.619304,10.3398438 L229.619304,25.7890625 L231.772625,25.7890625 L235.720379,20.9013672 L234.028484,20.6791992 L234.028484,18.5087891 L241.770183,18.5087891 L241.770183,20.6791992 L239.514324,21.1235352 L234.643718,26.934082 L240.573894,34.4365234 L242.675945,34.8466797 L242.675945,37 L235.002605,37 L235.002605,34.8466797 L236.728679,34.6245117 L231.823894,28.472168 L229.619304,28.472168 L229.619304,34.3681641 L232.404949,34.8466797 L232.404949,37 L223.466961,37 L223.466961,34.8466797 L226.252605,34.3681641 L226.252605,12.9887695 L223.466961,12.5102539 Z" id="helpdesk" fill="#464543"></path>
                <g id="chat-(2)" fill="#BBD147">
                    <path d="M29.6211555,33.0620375 C29.0232386,33.0620375 28.4325684,33.0109264 27.8491448,32.9085672 L27.3897346,32.8537563 L26.2959008,32.6893238 C22.2089276,32.1146321 18.3675201,30.3930235 15.2153646,27.7234614 L14.7012627,27.2301638 C12.0649866,24.9699017 10.2114853,21.9303664 9.40710724,18.5481263 C9.2530134,17.9320524 9.14335657,17.3055645 9.0789571,16.6735955 C3.6097882,18.7454453 0.000136729223,23.1193506 0.000136729223,27.8988561 C-0.0217399464,31.4177122 1.97997587,34.848871 5.46930563,37.2276616 C5.77079357,37.431832 5.95113941,37.7728925 5.95059249,38.1375216 L5.95059249,45.3067799 L11.4197614,40.2751445 C11.6727105,40.04028 12.02137,39.9387429 12.3604584,40.0010903 C13.5873298,40.227185 14.8321126,40.3409175 16.0794933,40.3409175 C22.3690375,40.3409175 28.1116649,37.4140185 30.7149893,33.0620375 L29.6211555,33.0620375 Z" id="Path"></path>
                    <path d="M31.0868928,0.000137027108 C20.1376166,0.000137027108 11.244748,6.92822758 11.244748,15.4458326 C11.244748,23.9634376 20.1594933,30.8915282 31.1087694,30.8915282 C32.6423244,30.8912541 34.1725979,30.7517605 35.6809946,30.4749657 L35.8778847,30.4749657 C36.1527105,30.4729103 36.4182386,30.5747215 36.6216917,30.7599821 L43.7097346,37.2605481 L43.7097346,27.953667 C43.7091877,27.5890378 43.8895335,27.2479774 44.1910214,27.043807 C48.4350965,24.1059458 50.9509142,19.8745487 50.9509142,15.4458326 C50.9509142,6.92822758 42.0361689,0.000137027108 31.0868928,0.000137027108 Z" id="Path"></path>
                </g>
            </g>
        </g>
    </g>
</svg>