<?xml version="1.0" encoding="UTF-8"?>
<svg width="243px" height="46px" viewBox="0 0 243 46" version="1.1" xmlns="http://www.w3.org/2000/svg" xmlns:xlink="http://www.w3.org/1999/xlink">
    <!-- Generator: Sketch 52.5 (67469) - http://www.bohemiancoding.com/sketch -->
    <title>Group</title>
    <desc>Created with Sketch.</desc>
    <g id="Page-1" stroke="none" stroke-width="1" fill="none" fill-rule="evenodd">
        <g id="[Colaborador]-Login" transform="translate(-577.000000, -349.000000)">
            <g id="Group" transform="translate(577.000000, 349.000000)">
                <text id="helpdesk" font-family="RobotoSlab-Regular, Roboto Slab" font-size="35" font-weight="normal" letter-spacing="1.470587">
                    <tspan x="81" y="37" fill="#BBD147">help</tspan>
                    <tspan x="160.334496" y="37" fill="#464543">desk</tspan>
                </text>
                <g id="chat-(2)" fill="#BBD147">
                    <path d="M29.6211555,32.9901635 C29.0232386,32.9901635 28.4325684,32.9391635 27.8491448,32.8370268 L27.3897346,32.7823351 L26.2959008,32.6182601 C22.2089276,32.0448177 18.3675201,30.3269517 15.2153646,27.663193 L14.7012627,27.1709678 C12.0649866,24.9156193 10.2114853,21.8826917 9.40710724,18.5078043 C9.2530134,17.8930697 9.14335657,17.2679437 9.0789571,16.6373485 C3.6097882,18.7046944 0.000136729223,23.0690912 0.000136729223,27.8382064 C-0.0217399464,31.3494129 1.97997587,34.7731126 5.46930563,37.1467319 C5.77079357,37.3504584 5.95113941,37.6907775 5.95059249,38.0546139 L5.95059249,45.2082869 L11.4197614,40.1875898 C11.6727105,39.9532359 12.02137,39.8519196 12.3604584,39.9141314 C13.5873298,40.1397346 14.8321126,40.2532198 16.0794933,40.2532198 C22.3690375,40.2532198 28.1116649,37.3326836 30.7149893,32.9901635 L29.6211555,32.9901635 Z" id="Path"></path>
                    <path d="M31.0868928,0.000136729223 C20.1376166,0.000136729223 11.244748,6.91316622 11.244748,15.4122547 C11.244748,23.9113432 20.1594933,30.8243727 31.1087694,30.8243727 C32.6423244,30.8240992 34.1725979,30.6849088 35.6809946,30.4087158 L35.8778847,30.4087158 C36.1527105,30.4066649 36.4182386,30.5082547 36.6216917,30.6931126 L43.7097346,37.1795469 L43.7097346,27.8928981 C43.7091877,27.5290617 43.8895335,27.1887426 44.1910214,26.9850161 C48.4350965,24.0535416 50.9509142,19.8313432 50.9509142,15.4122547 C50.9509142,6.91316622 42.0361689,0.000136729223 31.0868928,0.000136729223 Z" id="Path"></path>
                </g>
            </g>
        </g>
    </g>
</svg>