<?xml version="1.0" encoding="UTF-8"?>
<svg width="153px" height="34px" viewBox="0 0 153 34" version="1.1" xmlns="http://www.w3.org/2000/svg" xmlns:xlink="http://www.w3.org/1999/xlink">
    <!-- Generator: Sketch 52.5 (67469) - http://www.bohemiancoding.com/sketch -->
    <title>Group</title>
    <desc>Created with Sketch.</desc>
    <g id="Page-1" stroke="none" stroke-width="1" fill="none" fill-rule="evenodd">
        <g id="[Colaborador]-Dashboard" transform="translate(-30.000000, -16.000000)">
            <g id="Group" transform="translate(30.000000, 16.000000)">
                <path d="M113.32228,21.7402344 C112.977226,22.2220076 112.555681,22.5865873 112.057632,22.8339844 C111.559582,23.0813814 110.981789,23.2050781 110.324233,23.2050781 C109.035164,23.2050781 108.027688,22.7379604 107.301772,21.8037109 C106.575857,20.8694615 106.212905,19.6406326 106.212905,18.1171875 L106.212905,17.9121094 C106.212905,16.2128821 106.575857,14.8424531 107.301772,13.8007812 C108.027688,12.7591094 109.041675,12.2382812 110.343765,12.2382812 C110.968768,12.2382812 111.52052,12.35384 111.999038,12.5849609 C112.477556,12.8160819 112.886081,13.1497374 113.224624,13.5859375 L113.224624,9.27929688 L111.632827,9.00585938 L111.632827,7.765625 L115.148452,7.765625 L115.148452,21.4960938 L116.740249,21.7695312 L116.740249,23 L113.47853,23 L113.32228,21.7402344 Z M108.136733,18.1171875 C108.136733,19.1783907 108.35483,20.0312468 108.79103,20.6757812 C109.22723,21.3203157 109.901052,21.6425781 110.812515,21.6425781 C111.385434,21.6425781 111.8672,21.5123711 112.257827,21.2519531 C112.648454,20.9915352 112.970717,20.6237003 113.224624,20.1484375 L113.224624,15.2460938 C112.977227,14.8033832 112.654965,14.4518242 112.257827,14.1914062 C111.86069,13.9309883 111.385434,13.8007812 110.832046,13.8007812 C109.914073,13.8007812 109.235368,14.1816368 108.795913,14.9433594 C108.356458,15.7050819 108.136733,16.6946554 108.136733,17.9121094 L108.136733,18.1171875 Z M123.869647,23.2050781 C122.398286,23.2050781 121.22805,22.7151742 120.358905,21.7353516 C119.48976,20.755529 119.055194,19.4843828 119.055194,17.921875 L119.055194,17.4921875 C119.055194,15.9882737 119.502781,14.7366586 120.397968,13.7373047 C121.293154,12.7379507 122.352714,12.2382812 123.576679,12.2382812 C124.995956,12.2382812 126.071792,12.6679645 126.804218,13.5273438 C127.536643,14.386723 127.90285,15.5325449 127.90285,16.9648438 L127.90285,18.1660156 L121.047382,18.1660156 L121.018085,18.2148438 C121.037616,19.2304738 121.294775,20.0654264 121.789569,20.7197266 C122.284363,21.3740267 122.977716,21.7011719 123.869647,21.7011719 C124.520692,21.7011719 125.091976,21.6083994 125.583514,21.4228516 C126.075053,21.2373038 126.499854,20.9817725 126.857929,20.65625 L127.609882,21.90625 C127.232276,22.2708352 126.732606,22.5784493 126.110858,22.8291016 C125.48911,23.0797539 124.742047,23.2050781 123.869647,23.2050781 Z M123.576679,13.7519531 C122.932144,13.7519531 122.382019,14.0237603 121.926288,14.5673828 C121.470556,15.1110053 121.190611,15.7929646 121.086444,16.6132812 L121.105975,16.6621094 L125.979022,16.6621094 L125.979022,16.4082031 C125.979022,15.652991 125.777201,15.0214869 125.373554,14.5136719 C124.969906,14.0058568 124.370953,13.7519531 123.576679,13.7519531 Z M138.723655,15.7539062 L137.278342,15.7539062 L136.965842,14.484375 C136.731466,14.2630197 136.436873,14.0856126 136.082053,13.9521484 C135.727234,13.8186842 135.32522,13.7519531 134.875999,13.7519531 C134.192401,13.7519531 133.684594,13.9016912 133.352561,14.2011719 C133.020528,14.5006525 132.854514,14.8619771 132.854514,15.2851562 C132.854514,15.701825 133.000997,16.0305978 133.293967,16.2714844 C133.586938,16.512371 134.182635,16.7272126 135.081077,16.9160156 C136.415719,17.2024754 137.408547,17.5914689 138.059592,18.0830078 C138.710637,18.5745467 139.036155,19.2337198 139.036155,20.0605469 C139.036155,20.9980516 138.656927,21.7565075 137.89846,22.3359375 C137.139992,22.9153675 136.148791,23.2050781 134.924827,23.2050781 C134.124041,23.2050781 133.404648,23.1123056 132.766624,22.9267578 C132.1286,22.74121 131.558944,22.472658 131.057639,22.1210938 L131.047874,19.7089844 L132.493186,19.7089844 L132.854514,21.125 C133.075869,21.3268239 133.376973,21.4733068 133.757835,21.5644531 C134.138696,21.6555994 134.527689,21.7011719 134.924827,21.7011719 C135.608424,21.7011719 136.1439,21.5628269 136.531272,21.2861328 C136.918644,21.0094387 137.112327,20.6464866 137.112327,20.1972656 C137.112327,19.7740864 136.951195,19.4257826 136.628928,19.1523438 C136.306661,18.8789049 135.696316,18.6412771 134.797874,18.4394531 C133.515315,18.1595038 132.548528,17.7786482 131.897483,17.296875 C131.246438,16.8151018 130.92092,16.1640666 130.92092,15.34375 C130.92092,14.4843707 131.287128,13.7519562 132.019553,13.1464844 C132.751979,12.5410126 133.704118,12.2382812 134.875999,12.2382812 C135.676784,12.2382812 136.396178,12.3424469 137.034202,12.5507812 C137.672226,12.7591156 138.202819,13.0488263 138.625999,13.4199219 L138.723655,15.7539062 Z M141.409694,9.00585938 L141.409694,7.765625 L144.925319,7.765625 L144.925319,16.59375 L146.155787,16.59375 L148.411647,13.8007812 L147.44485,13.6738281 L147.44485,12.4335938 L151.868678,12.4335938 L151.868678,13.6738281 L150.579616,13.9277344 L147.796412,17.2480469 L151.185084,21.5351562 L152.386256,21.7695312 L152.386256,23 L148.001491,23 L148.001491,21.7695312 L148.987819,21.6425781 L146.185084,18.1269531 L144.925319,18.1269531 L144.925319,21.4960938 L146.517116,21.7695312 L146.517116,23 L141.409694,23 L141.409694,21.7695312 L143.001491,21.4960938 L143.001491,9.27929688 L141.409694,9.00585938 Z" id="helpdesk" fill="#FFFFFF"></path>
                <path d="M60.6054688,21.7695312 L62.1972656,21.4960938 L62.1972656,9.27929688 L60.6054688,9.00585938 L60.6054688,7.765625 L64.1210938,7.765625 L64.1210938,13.8398438 C64.4856789,13.3320287 64.931638,12.9381524 65.4589844,12.6582031 C65.9863308,12.3782538 66.5722624,12.2382812 67.2167969,12.2382812 C68.349615,12.2382812 69.2285125,12.5768195 69.8535156,13.2539062 C70.4785188,13.930993 70.7910156,14.9726492 70.7910156,16.3789062 L70.7910156,21.4960938 L72.3828125,21.7695312 L72.3828125,23 L67.2753906,23 L67.2753906,21.7695312 L68.8671875,21.4960938 L68.8671875,16.359375 C68.8671875,15.4869748 68.6800149,14.84245 68.3056641,14.4257812 C67.9313132,14.0091125 67.3730506,13.8007812 66.6308594,13.8007812 C66.103513,13.8007812 65.6233746,13.9261055 65.1904297,14.1767578 C64.7574848,14.4274101 64.4010431,14.767576 64.1210938,15.1972656 L64.1210938,21.4960938 L65.7128906,21.7695312 L65.7128906,23 L60.6054688,23 L60.6054688,21.7695312 Z M79.3461951,23.2050781 C77.8748336,23.2050781 76.7045979,22.7151742 75.8354529,21.7353516 C74.9663079,20.755529 74.5317419,19.4843828 74.5317419,17.921875 L74.5317419,17.4921875 C74.5317419,15.9882737 74.9793286,14.7366586 75.8745154,13.7373047 C76.7697022,12.7379507 77.8292619,12.2382812 79.0532263,12.2382812 C80.4725043,12.2382812 81.5483399,12.6679645 82.2807654,13.5273438 C83.0131909,14.386723 83.3793982,15.5325449 83.3793982,16.9648438 L83.3793982,18.1660156 L76.5239294,18.1660156 L76.4946326,18.2148438 C76.5141639,19.2304738 76.7713228,20.0654264 77.2661169,20.7197266 C77.7609111,21.3740267 78.4542635,21.7011719 79.3461951,21.7011719 C79.99724,21.7011719 80.5685233,21.6083994 81.0600623,21.4228516 C81.5516012,21.2373038 81.9764016,20.9817725 82.3344763,20.65625 L83.0864294,21.90625 C82.7088234,22.2708352 82.2091539,22.5784493 81.587406,22.8291016 C80.9656581,23.0797539 80.2185953,23.2050781 79.3461951,23.2050781 Z M79.0532263,13.7519531 C78.4086919,13.7519531 77.8585671,14.0237603 77.4028357,14.5673828 C76.9471043,15.1110053 76.6671591,15.7929646 76.5629919,16.6132812 L76.5825232,16.6621094 L81.4555701,16.6621094 L81.4555701,16.4082031 C81.4555701,15.652991 81.2537492,15.0214869 80.8501013,14.5136719 C80.4464535,14.0058568 79.8475011,13.7519531 79.0532263,13.7519531 Z M85.8505933,9.00585938 L85.8505933,7.765625 L89.3662183,7.765625 L89.3662183,21.4960938 L90.9580151,21.7695312 L90.9580151,23 L85.8505933,23 L85.8505933,21.7695312 L87.4423901,21.4960938 L87.4423901,9.27929688 L85.8505933,9.00585938 Z M93.019054,25.8222656 L94.6108508,25.5488281 L94.6108508,13.9472656 L93.019054,13.6738281 L93.019054,12.4335938 L96.2612415,12.4335938 L96.4370227,13.7226562 C96.788587,13.240883 97.2166426,12.8730481 97.7212024,12.6191406 C98.2257622,12.3652331 98.8100663,12.2382812 99.4741321,12.2382812 C100.782732,12.2382812 101.799975,12.7574818 102.52589,13.7958984 C103.251805,14.8343151 103.614757,16.2063717 103.614757,17.9121094 L103.614757,18.1171875 C103.614757,19.6406326 103.250177,20.8694615 102.521007,21.8037109 C101.791837,22.7379604 100.785987,23.2050781 99.503429,23.2050781 C98.8523841,23.2050781 98.2811007,23.0960297 97.7895618,22.8779297 C97.2980229,22.6598296 96.8797328,22.3359396 96.534679,21.90625 L96.534679,25.5488281 L98.1264758,25.8222656 L98.1264758,27.0625 L93.019054,27.0625 L93.019054,25.8222656 Z M101.681163,17.9121094 C101.681163,16.7076763 101.446791,15.721358 100.978038,14.953125 C100.509286,14.184892 99.8126784,13.8007812 98.8881946,13.8007812 C98.3413169,13.8007812 97.8725716,13.9244779 97.4819446,14.171875 C97.0913176,14.4192721 96.7755656,14.7578104 96.534679,15.1875 L96.534679,20.3339844 C96.7755656,20.7701845 97.0896901,21.1070952 97.4770618,21.3447266 C97.8644335,21.582358 98.3413168,21.7011719 98.9077258,21.7011719 C99.8191887,21.7011719 100.509286,21.3691439 100.978038,20.7050781 C101.446791,20.0410123 101.681163,19.1783907 101.681163,18.1171875 L101.681163,17.9121094 Z" id="helpdesk" fill="#BBD147"></path>
                <g id="chat-(2)" fill="#BBD147">
                    <path d="M22.0706649,24.5809062 C21.6251582,24.5809062 21.1850509,24.5429062 20.7503432,24.4668043 L20.4080375,24.4260536 L19.5930241,24.3038016 C16.5478284,23.8765308 13.6856032,22.5965523 11.3369383,20.6117909 L10.953882,20.2450349 C8.98959786,18.5645791 7.60855764,16.3047507 7.00921716,13.7901287 C6.89440214,13.3320912 6.81269705,12.866311 6.76471314,12.3964558 C2.68964611,13.9368311 0.000101876676,17.1887346 0.000101876676,20.742193 C-0.0161983914,23.3583861 1.47527614,25.909378 4.0751689,27.6779571 C4.29980697,27.8297534 4.43418231,28.0833244 4.4337748,28.3544182 L4.4337748,33.6846059 L8.50884182,29.9436944 C8.69731367,29.7690777 8.9570992,29.6935871 9.20975335,29.739941 C10.1238928,29.9080375 11.051378,29.9925952 11.9807989,29.9925952 C16.667126,29.9925952 20.9459464,27.8165094 22.8856783,24.5809062 L22.0706649,24.5809062 Z" id="Path"></path>
                    <path d="M23.1627828,0.000101876676 C15.0044987,0.000101876676 8.37843968,5.1509866 8.37843968,11.4836408 C8.37843968,17.8162949 15.0207989,22.9671796 23.1790831,22.9671796 C24.3217319,22.9669759 25.4619357,22.8632654 26.5858391,22.6574745 L26.7325416,22.6574745 C26.9373137,22.6559464 27.1351582,22.7316408 27.2867507,22.869378 L32.5680375,27.7024075 L32.5680375,20.7829437 C32.56763,20.5118499 32.7020054,20.2582788 32.9266434,20.1064826 C36.0888954,17.9222466 37.9634263,14.7762949 37.9634263,11.4836408 C37.9634263,5.1509866 31.321067,0.000101876676 23.1627828,0.000101876676 Z" id="Path"></path>
                </g>
            </g>
        </g>
    </g>
</svg>