<?xml version="1.0" encoding="UTF-8"?>
<svg width="18px" height="18px" viewBox="0 0 18 18" version="1.1" xmlns="http://www.w3.org/2000/svg" xmlns:xlink="http://www.w3.org/1999/xlink">
    <!-- Generator: Sketch 52.5 (67469) - http://www.bohemiancoding.com/sketch -->
    <title>key</title>
    <desc>Created with Sketch.</desc>
    <g id="Page-1" stroke="none" stroke-width="1" fill="none" fill-rule="evenodd">
        <g id="[Colaborador]-Login" transform="translate(-906.000000, -634.000000)" fill="#636363" fill-rule="nonzero">
            <g id="key" transform="translate(906.000000, 634.000000)">
                <path d="M18,6.18753516 C18,9.60479297 15.2297578,12.375 11.8125,12.375 C11.4180469,12.375 11.0323828,12.3376641 10.6584258,12.2671055 L9.81425391,13.2168164 C9.65413722,13.3969491 9.42462965,13.5000087 9.18362109,13.5 L7.875,13.5 L7.875,14.90625 C7.875,15.3722461 7.49724609,15.75 7.03125,15.75 L5.625,15.75 L5.625,17.15625 C5.625,17.6222461 5.24724609,18 4.78125,18 L0.84375,18 C0.377753906,18 0,17.6222461 0,17.15625 L0,14.4119883 C0,14.1882188 0.0889101562,13.9735898 0.247113281,13.8153516 L5.93546484,8.127 C5.73426562,7.51689844 5.625,6.86499609 5.625,6.1875 C5.625,2.77024219 8.39520703,3.515625e-05 11.8124648,0 C15.2398125,-3.515625e-05 18,2.76015234 18,6.18753516 Z M11.8125,4.5 C11.8125,5.43199219 12.5680078,6.1875 13.5,6.1875 C14.4319922,6.1875 15.1875,5.43199219 15.1875,4.5 C15.1875,3.56800781 14.4319922,2.8125 13.5,2.8125 C12.5680078,2.8125 11.8125,3.56800781 11.8125,4.5 Z" id="Shape"></path>
            </g>
        </g>
    </g>
</svg>