<?xml version="1.0" encoding="UTF-8"?>
<svg width="18px" height="18px" viewBox="0 0 18 18" version="1.1" xmlns="http://www.w3.org/2000/svg" xmlns:xlink="http://www.w3.org/1999/xlink">
    <!-- Generator: Sketch 52.5 (67469) - http://www.bohemiancoding.com/sketch -->
    <title>user-alt</title>
    <desc>Created with Sketch.</desc>
    <g id="Page-1" stroke="none" stroke-width="1" fill="none" fill-rule="evenodd">
        <g id="[Colaborador]-Login" transform="translate(-907.000000, -552.000000)" fill="#636363" fill-rule="nonzero">
            <g id="user-alt" transform="translate(907.000000, 552.000000)">
                <path d="M9,10.125 C11.7949219,10.125 14.0625,7.85742188 14.0625,5.0625 C14.0625,2.26757812 11.7949219,0 9,0 C6.20507812,0 3.9375,2.26757812 3.9375,5.0625 C3.9375,7.85742188 6.20507812,10.125 9,10.125 Z M13.5,11.25 L11.5628906,11.25 C10.7824219,11.6085937 9.9140625,11.8125 9,11.8125 C8.0859375,11.8125 7.22109375,11.6085937 6.43710937,11.25 L4.5,11.25 C2.01445312,11.25 0,13.2644531 0,15.75 L0,16.3125 C0,17.2441406 0.755859375,18 1.6875,18 L16.3125,18 C17.2441406,18 18,17.2441406 18,16.3125 L18,15.75 C18,13.2644531 15.9855469,11.25 13.5,11.25 Z" id="Shape"></path>
            </g>
        </g>
    </g>
</svg>